<mxfile host="Electron" agent="Mozilla/5.0 (X11; Linux x86_64) AppleWebKit/537.36 (KHTML, like Gecko) draw.io/26.1.1 Chrome/132.0.6834.210 Electron/34.5.0 Safari/537.36" version="26.1.1">
  <diagram name="第 1 页" id="N4PpioAevFEzQy6MrqfE">
    <mxGraphModel dx="878" dy="820" grid="1" gridSize="10" guides="0" tooltips="1" connect="1" arrows="1" fold="1" page="1" pageScale="1" pageWidth="1169" pageHeight="827" math="0" shadow="0">
      <root>
        <mxCell id="0" />
        <mxCell id="1" parent="0" />
        <mxCell id="BAhukA9TN1ykWZbdlTj1-1" value="&lt;div&gt;Product&amp;nbsp;&lt;span style=&quot;background-color: transparent; color: light-dark(rgb(0, 0, 0), rgb(255, 255, 255));&quot;&gt;产品&lt;/span&gt;&lt;/div&gt;" style="whiteSpace=wrap;html=1;align=center;fontSize=14;" vertex="1" parent="1">
          <mxGeometry x="400" y="120" width="100" height="40" as="geometry" />
        </mxCell>
        <mxCell id="BAhukA9TN1ykWZbdlTj1-2" value="Price&amp;nbsp;&lt;span style=&quot;background-color: transparent; color: light-dark(rgb(0, 0, 0), rgb(255, 255, 255));&quot;&gt;价格&lt;/span&gt;" style="whiteSpace=wrap;html=1;align=center;fontSize=14;" vertex="1" parent="1">
          <mxGeometry x="400" y="300" width="100" height="40" as="geometry" />
        </mxCell>
        <mxCell id="BAhukA9TN1ykWZbdlTj1-3" value="含有" style="shape=rhombus;perimeter=rhombusPerimeter;whiteSpace=wrap;html=1;align=center;fontSize=14;" vertex="1" parent="1">
          <mxGeometry x="320" y="190" width="120" height="60" as="geometry" />
        </mxCell>
        <mxCell id="BAhukA9TN1ykWZbdlTj1-4" value="name 名字" style="ellipse;whiteSpace=wrap;html=1;align=center;fontSize=14;" vertex="1" parent="1">
          <mxGeometry x="520" y="40" width="100" height="40" as="geometry" />
        </mxCell>
        <mxCell id="BAhukA9TN1ykWZbdlTj1-5" value="id 编号" style="ellipse;whiteSpace=wrap;html=1;align=center;fontStyle=4;fontSize=14;" vertex="1" parent="1">
          <mxGeometry x="400" y="40" width="100" height="40" as="geometry" />
        </mxCell>
        <mxCell id="BAhukA9TN1ykWZbdlTj1-7" value="" style="endArrow=none;html=1;rounded=0;noEdgeStyle=1;fontSize=14;" edge="1" parent="1" source="BAhukA9TN1ykWZbdlTj1-5" target="BAhukA9TN1ykWZbdlTj1-1">
          <mxGeometry relative="1" as="geometry">
            <mxPoint x="40" y="260" as="sourcePoint" />
            <mxPoint x="200" y="260" as="targetPoint" />
          </mxGeometry>
        </mxCell>
        <mxCell id="BAhukA9TN1ykWZbdlTj1-8" value="desc 说明" style="ellipse;whiteSpace=wrap;html=1;align=center;fontSize=14;" vertex="1" parent="1">
          <mxGeometry x="280" y="40" width="100" height="40" as="geometry" />
        </mxCell>
        <mxCell id="BAhukA9TN1ykWZbdlTj1-9" value="" style="endArrow=none;html=1;rounded=0;noEdgeStyle=1;fontSize=14;" edge="1" parent="1" source="BAhukA9TN1ykWZbdlTj1-1" target="BAhukA9TN1ykWZbdlTj1-4">
          <mxGeometry relative="1" as="geometry">
            <mxPoint x="-100" y="330" as="sourcePoint" />
            <mxPoint x="60" y="330" as="targetPoint" />
          </mxGeometry>
        </mxCell>
        <mxCell id="BAhukA9TN1ykWZbdlTj1-10" value="" style="endArrow=none;html=1;rounded=0;noEdgeStyle=1;fontSize=14;" edge="1" parent="1" source="BAhukA9TN1ykWZbdlTj1-8" target="BAhukA9TN1ykWZbdlTj1-1">
          <mxGeometry relative="1" as="geometry">
            <mxPoint x="-30" y="250" as="sourcePoint" />
            <mxPoint x="130" y="250" as="targetPoint" />
          </mxGeometry>
        </mxCell>
        <mxCell id="BAhukA9TN1ykWZbdlTj1-11" value="" style="endArrow=none;html=1;rounded=0;noEdgeStyle=1;fontSize=14;" edge="1" parent="1" source="BAhukA9TN1ykWZbdlTj1-1" target="BAhukA9TN1ykWZbdlTj1-3">
          <mxGeometry relative="1" as="geometry">
            <mxPoint x="-40" y="250" as="sourcePoint" />
            <mxPoint x="120" y="250" as="targetPoint" />
          </mxGeometry>
        </mxCell>
        <mxCell id="BAhukA9TN1ykWZbdlTj1-12" value="1" style="resizable=0;html=1;whiteSpace=wrap;align=right;verticalAlign=bottom;fontSize=14;" connectable="0" vertex="1" parent="BAhukA9TN1ykWZbdlTj1-11">
          <mxGeometry x="1" relative="1" as="geometry" />
        </mxCell>
        <mxCell id="BAhukA9TN1ykWZbdlTj1-13" value="" style="endArrow=none;html=1;rounded=0;noEdgeStyle=1;fontSize=14;" edge="1" parent="1" source="BAhukA9TN1ykWZbdlTj1-2" target="BAhukA9TN1ykWZbdlTj1-3">
          <mxGeometry relative="1" as="geometry">
            <mxPoint x="120" y="220" as="sourcePoint" />
            <mxPoint x="280" y="220" as="targetPoint" />
          </mxGeometry>
        </mxCell>
        <mxCell id="BAhukA9TN1ykWZbdlTj1-14" value="1" style="resizable=0;html=1;whiteSpace=wrap;align=right;verticalAlign=bottom;fontSize=14;" connectable="0" vertex="1" parent="BAhukA9TN1ykWZbdlTj1-13">
          <mxGeometry x="1" relative="1" as="geometry" />
        </mxCell>
        <mxCell id="BAhukA9TN1ykWZbdlTj1-15" value="unit 定价单位" style="ellipse;whiteSpace=wrap;html=1;align=center;fontSize=14;" vertex="1" parent="1">
          <mxGeometry x="400" y="380" width="100" height="40" as="geometry" />
        </mxCell>
        <mxCell id="BAhukA9TN1ykWZbdlTj1-16" value="price 单位价格" style="ellipse;whiteSpace=wrap;html=1;align=center;fontSize=14;" vertex="1" parent="1">
          <mxGeometry x="520" y="380" width="100" height="40" as="geometry" />
        </mxCell>
        <mxCell id="BAhukA9TN1ykWZbdlTj1-17" value="pricing&lt;div&gt;计价方式&lt;/div&gt;" style="ellipse;whiteSpace=wrap;html=1;align=center;fontSize=14;" vertex="1" parent="1">
          <mxGeometry x="280" y="380" width="100" height="40" as="geometry" />
        </mxCell>
        <mxCell id="BAhukA9TN1ykWZbdlTj1-18" value="" style="endArrow=none;html=1;rounded=0;noEdgeStyle=1;fontSize=14;" edge="1" parent="1" source="BAhukA9TN1ykWZbdlTj1-2" target="BAhukA9TN1ykWZbdlTj1-17">
          <mxGeometry relative="1" as="geometry">
            <mxPoint x="50" y="320" as="sourcePoint" />
            <mxPoint x="210" y="320" as="targetPoint" />
          </mxGeometry>
        </mxCell>
        <mxCell id="BAhukA9TN1ykWZbdlTj1-19" value="" style="endArrow=none;html=1;rounded=0;noEdgeStyle=1;fontSize=14;" edge="1" parent="1" source="BAhukA9TN1ykWZbdlTj1-2" target="BAhukA9TN1ykWZbdlTj1-15">
          <mxGeometry relative="1" as="geometry">
            <mxPoint x="280" y="220" as="sourcePoint" />
            <mxPoint x="440" y="220" as="targetPoint" />
          </mxGeometry>
        </mxCell>
        <mxCell id="BAhukA9TN1ykWZbdlTj1-20" value="" style="endArrow=none;html=1;rounded=0;noEdgeStyle=1;fontSize=14;" edge="1" parent="1" source="BAhukA9TN1ykWZbdlTj1-2" target="BAhukA9TN1ykWZbdlTj1-16">
          <mxGeometry relative="1" as="geometry">
            <mxPoint x="320" y="260" as="sourcePoint" />
            <mxPoint x="480" y="260" as="targetPoint" />
          </mxGeometry>
        </mxCell>
        <mxCell id="BAhukA9TN1ykWZbdlTj1-21" value="Restock&lt;div&gt;&lt;span style=&quot;background-color: transparent; color: light-dark(rgb(0, 0, 0), rgb(255, 255, 255));&quot;&gt;进货计划&lt;/span&gt;&lt;/div&gt;" style="whiteSpace=wrap;html=1;align=center;fontSize=14;" vertex="1" parent="1">
          <mxGeometry x="1000" y="300" width="100" height="40" as="geometry" />
        </mxCell>
        <mxCell id="BAhukA9TN1ykWZbdlTj1-35" value="name 名字" style="ellipse;whiteSpace=wrap;html=1;align=center;fontSize=14;" vertex="1" parent="1">
          <mxGeometry x="1120" y="380" width="100" height="40" as="geometry" />
        </mxCell>
        <mxCell id="BAhukA9TN1ykWZbdlTj1-36" value="desc 说明" style="ellipse;whiteSpace=wrap;html=1;align=center;fontSize=14;" vertex="1" parent="1">
          <mxGeometry x="880" y="380" width="100" height="40" as="geometry" />
        </mxCell>
        <mxCell id="BAhukA9TN1ykWZbdlTj1-37" value="" style="endArrow=none;html=1;rounded=0;noEdgeStyle=1;fontSize=14;" edge="1" parent="1" source="BAhukA9TN1ykWZbdlTj1-36" target="BAhukA9TN1ykWZbdlTj1-21">
          <mxGeometry relative="1" as="geometry">
            <mxPoint x="-60" y="340" as="sourcePoint" />
            <mxPoint x="100" y="340" as="targetPoint" />
          </mxGeometry>
        </mxCell>
        <mxCell id="BAhukA9TN1ykWZbdlTj1-38" value="" style="endArrow=none;html=1;rounded=0;noEdgeStyle=1;fontSize=14;" edge="1" parent="1" source="BAhukA9TN1ykWZbdlTj1-35" target="BAhukA9TN1ykWZbdlTj1-21">
          <mxGeometry relative="1" as="geometry">
            <mxPoint x="130" y="380" as="sourcePoint" />
            <mxPoint x="290" y="380" as="targetPoint" />
          </mxGeometry>
        </mxCell>
        <mxCell id="BAhukA9TN1ykWZbdlTj1-39" value="id 编号" style="ellipse;whiteSpace=wrap;html=1;align=center;fontStyle=4;fontSize=14;" vertex="1" parent="1">
          <mxGeometry x="1000" y="380" width="100" height="40" as="geometry" />
        </mxCell>
        <mxCell id="BAhukA9TN1ykWZbdlTj1-40" value="" style="endArrow=none;html=1;rounded=0;noEdgeStyle=1;fontSize=14;" edge="1" parent="1" source="BAhukA9TN1ykWZbdlTj1-21" target="BAhukA9TN1ykWZbdlTj1-39">
          <mxGeometry relative="1" as="geometry">
            <mxPoint x="140" y="390" as="sourcePoint" />
            <mxPoint x="300" y="390" as="targetPoint" />
          </mxGeometry>
        </mxCell>
        <mxCell id="BAhukA9TN1ykWZbdlTj1-41" value="含有" style="shape=rhombus;perimeter=rhombusPerimeter;whiteSpace=wrap;html=1;align=center;fontSize=14;" vertex="1" parent="1">
          <mxGeometry x="840" y="290" width="120" height="60" as="geometry" />
        </mxCell>
        <mxCell id="BAhukA9TN1ykWZbdlTj1-42" value="RestockItem&lt;div&gt;进货计划项&lt;/div&gt;" style="whiteSpace=wrap;html=1;align=center;fontSize=14;" vertex="1" parent="1">
          <mxGeometry x="700" y="300" width="100" height="40" as="geometry" />
        </mxCell>
        <mxCell id="BAhukA9TN1ykWZbdlTj1-43" value="含有" style="shape=rhombus;perimeter=rhombusPerimeter;whiteSpace=wrap;html=1;align=center;fontSize=14;" vertex="1" parent="1">
          <mxGeometry x="540" y="290" width="120" height="60" as="geometry" />
        </mxCell>
        <mxCell id="BAhukA9TN1ykWZbdlTj1-45" value="" style="endArrow=none;html=1;rounded=0;noEdgeStyle=1;fontSize=14;" edge="1" parent="1" source="BAhukA9TN1ykWZbdlTj1-47" target="BAhukA9TN1ykWZbdlTj1-42">
          <mxGeometry relative="1" as="geometry">
            <mxPoint x="430" y="320" as="sourcePoint" />
            <mxPoint x="590" y="320" as="targetPoint" />
          </mxGeometry>
        </mxCell>
        <mxCell id="BAhukA9TN1ykWZbdlTj1-46" value="" style="endArrow=none;html=1;rounded=0;noEdgeStyle=1;fontSize=14;" edge="1" parent="1" source="BAhukA9TN1ykWZbdlTj1-61" target="BAhukA9TN1ykWZbdlTj1-62">
          <mxGeometry relative="1" as="geometry">
            <mxPoint x="474" y="66" as="sourcePoint" />
            <mxPoint x="334" y="126" as="targetPoint" />
          </mxGeometry>
        </mxCell>
        <mxCell id="BAhukA9TN1ykWZbdlTj1-47" value="qty 进货量" style="ellipse;whiteSpace=wrap;html=1;align=center;fontSize=14;" vertex="1" parent="1">
          <mxGeometry x="700" y="380" width="100" height="40" as="geometry" />
        </mxCell>
        <mxCell id="BAhukA9TN1ykWZbdlTj1-48" value="" style="endArrow=none;html=1;rounded=0;noEdgeStyle=1;fontSize=14;" edge="1" parent="1" source="BAhukA9TN1ykWZbdlTj1-21" target="BAhukA9TN1ykWZbdlTj1-41">
          <mxGeometry relative="1" as="geometry">
            <mxPoint x="30" y="400" as="sourcePoint" />
            <mxPoint x="190" y="400" as="targetPoint" />
          </mxGeometry>
        </mxCell>
        <mxCell id="BAhukA9TN1ykWZbdlTj1-49" value="1" style="resizable=0;html=1;whiteSpace=wrap;align=right;verticalAlign=bottom;fontSize=14;" connectable="0" vertex="1" parent="BAhukA9TN1ykWZbdlTj1-48">
          <mxGeometry x="1" relative="1" as="geometry" />
        </mxCell>
        <mxCell id="BAhukA9TN1ykWZbdlTj1-50" value="" style="endArrow=none;html=1;rounded=0;noEdgeStyle=1;fontSize=14;" edge="1" parent="1" source="BAhukA9TN1ykWZbdlTj1-42" target="BAhukA9TN1ykWZbdlTj1-41">
          <mxGeometry relative="1" as="geometry">
            <mxPoint x="190" y="420" as="sourcePoint" />
            <mxPoint x="350" y="420" as="targetPoint" />
          </mxGeometry>
        </mxCell>
        <mxCell id="BAhukA9TN1ykWZbdlTj1-51" value="N" style="resizable=0;html=1;whiteSpace=wrap;align=right;verticalAlign=bottom;fontSize=14;" connectable="0" vertex="1" parent="BAhukA9TN1ykWZbdlTj1-50">
          <mxGeometry x="1" relative="1" as="geometry" />
        </mxCell>
        <mxCell id="BAhukA9TN1ykWZbdlTj1-52" value="" style="endArrow=none;html=1;rounded=0;noEdgeStyle=1;fontSize=14;" edge="1" parent="1" source="BAhukA9TN1ykWZbdlTj1-42" target="BAhukA9TN1ykWZbdlTj1-43">
          <mxGeometry relative="1" as="geometry">
            <mxPoint x="250" y="200" as="sourcePoint" />
            <mxPoint x="410" y="200" as="targetPoint" />
          </mxGeometry>
        </mxCell>
        <mxCell id="BAhukA9TN1ykWZbdlTj1-53" value="1" style="resizable=0;html=1;whiteSpace=wrap;align=right;verticalAlign=bottom;fontSize=14;" connectable="0" vertex="1" parent="BAhukA9TN1ykWZbdlTj1-52">
          <mxGeometry x="1" relative="1" as="geometry" />
        </mxCell>
        <mxCell id="BAhukA9TN1ykWZbdlTj1-54" value="" style="endArrow=none;html=1;rounded=0;noEdgeStyle=1;fontSize=14;" edge="1" parent="1" source="BAhukA9TN1ykWZbdlTj1-2" target="BAhukA9TN1ykWZbdlTj1-43">
          <mxGeometry relative="1" as="geometry">
            <mxPoint x="250" y="200" as="sourcePoint" />
            <mxPoint x="410" y="200" as="targetPoint" />
          </mxGeometry>
        </mxCell>
        <mxCell id="BAhukA9TN1ykWZbdlTj1-55" value="1" style="resizable=0;html=1;whiteSpace=wrap;align=right;verticalAlign=bottom;fontSize=14;" connectable="0" vertex="1" parent="BAhukA9TN1ykWZbdlTj1-54">
          <mxGeometry x="1" relative="1" as="geometry" />
        </mxCell>
        <mxCell id="BAhukA9TN1ykWZbdlTj1-56" value="关联" style="shape=rhombus;perimeter=rhombusPerimeter;whiteSpace=wrap;html=1;align=center;fontSize=14;" vertex="1" parent="1">
          <mxGeometry x="460" y="190" width="120" height="60" as="geometry" />
        </mxCell>
        <mxCell id="BAhukA9TN1ykWZbdlTj1-57" value="" style="endArrow=none;html=1;rounded=0;noEdgeStyle=1;fontSize=14;" edge="1" parent="1" source="BAhukA9TN1ykWZbdlTj1-1" target="BAhukA9TN1ykWZbdlTj1-56">
          <mxGeometry relative="1" as="geometry">
            <mxPoint x="50" y="160" as="sourcePoint" />
            <mxPoint x="350" y="220" as="targetPoint" />
          </mxGeometry>
        </mxCell>
        <mxCell id="BAhukA9TN1ykWZbdlTj1-58" value="1" style="resizable=0;html=1;whiteSpace=wrap;align=right;verticalAlign=bottom;fontSize=14;" connectable="0" vertex="1" parent="BAhukA9TN1ykWZbdlTj1-57">
          <mxGeometry x="1" relative="1" as="geometry" />
        </mxCell>
        <mxCell id="BAhukA9TN1ykWZbdlTj1-59" value="" style="endArrow=none;html=1;rounded=0;noEdgeStyle=1;fontSize=14;" edge="1" parent="1" source="BAhukA9TN1ykWZbdlTj1-42" target="BAhukA9TN1ykWZbdlTj1-56">
          <mxGeometry relative="1" as="geometry">
            <mxPoint x="190" y="220" as="sourcePoint" />
            <mxPoint x="350" y="220" as="targetPoint" />
          </mxGeometry>
        </mxCell>
        <mxCell id="BAhukA9TN1ykWZbdlTj1-60" value="1" style="resizable=0;html=1;whiteSpace=wrap;align=right;verticalAlign=bottom;fontSize=14;" connectable="0" vertex="1" parent="BAhukA9TN1ykWZbdlTj1-59">
          <mxGeometry x="1" relative="1" as="geometry" />
        </mxCell>
        <mxCell id="BAhukA9TN1ykWZbdlTj1-61" value="&lt;div&gt;RestockHist&lt;/div&gt;进货历史记录" style="whiteSpace=wrap;html=1;align=center;fontSize=14;" vertex="1" parent="1">
          <mxGeometry x="1000" y="120" width="100" height="40" as="geometry" />
        </mxCell>
        <mxCell id="BAhukA9TN1ykWZbdlTj1-62" value="id 编号" style="ellipse;whiteSpace=wrap;html=1;align=center;fontStyle=4;fontSize=14;" vertex="1" parent="1">
          <mxGeometry x="1000" y="40" width="100" height="40" as="geometry" />
        </mxCell>
        <mxCell id="BAhukA9TN1ykWZbdlTj1-63" value="time 时间" style="ellipse;whiteSpace=wrap;html=1;align=center;fontSize=14;" vertex="1" parent="1">
          <mxGeometry x="880" y="40" width="100" height="40" as="geometry" />
        </mxCell>
        <mxCell id="BAhukA9TN1ykWZbdlTj1-64" value="count&lt;div&gt;重复次数&lt;/div&gt;" style="ellipse;whiteSpace=wrap;html=1;align=center;fontSize=14;" vertex="1" parent="1">
          <mxGeometry x="1120" y="40" width="100" height="40" as="geometry" />
        </mxCell>
        <mxCell id="BAhukA9TN1ykWZbdlTj1-65" value="关联" style="shape=rhombus;perimeter=rhombusPerimeter;whiteSpace=wrap;html=1;align=center;fontSize=14;" vertex="1" parent="1">
          <mxGeometry x="990" y="200" width="120" height="60" as="geometry" />
        </mxCell>
        <mxCell id="BAhukA9TN1ykWZbdlTj1-66" value="" style="endArrow=none;html=1;rounded=0;noEdgeStyle=1;fontSize=14;" edge="1" parent="1" source="BAhukA9TN1ykWZbdlTj1-61" target="BAhukA9TN1ykWZbdlTj1-63">
          <mxGeometry relative="1" as="geometry">
            <mxPoint x="484" y="76" as="sourcePoint" />
            <mxPoint x="344" y="136" as="targetPoint" />
          </mxGeometry>
        </mxCell>
        <mxCell id="BAhukA9TN1ykWZbdlTj1-67" value="" style="endArrow=none;html=1;rounded=0;noEdgeStyle=1;fontSize=14;" edge="1" parent="1" source="BAhukA9TN1ykWZbdlTj1-64" target="BAhukA9TN1ykWZbdlTj1-61">
          <mxGeometry relative="1" as="geometry">
            <mxPoint x="494" y="86" as="sourcePoint" />
            <mxPoint x="354" y="146" as="targetPoint" />
          </mxGeometry>
        </mxCell>
        <mxCell id="BAhukA9TN1ykWZbdlTj1-68" value="" style="endArrow=none;html=1;rounded=0;noEdgeStyle=1;fontSize=14;" edge="1" parent="1" source="BAhukA9TN1ykWZbdlTj1-21" target="BAhukA9TN1ykWZbdlTj1-65">
          <mxGeometry relative="1" as="geometry">
            <mxPoint x="180" y="290" as="sourcePoint" />
            <mxPoint x="228" y="300" as="targetPoint" />
          </mxGeometry>
        </mxCell>
        <mxCell id="BAhukA9TN1ykWZbdlTj1-69" value="1" style="resizable=0;html=1;whiteSpace=wrap;align=right;verticalAlign=bottom;fontSize=14;" connectable="0" vertex="1" parent="BAhukA9TN1ykWZbdlTj1-68">
          <mxGeometry x="1" relative="1" as="geometry" />
        </mxCell>
        <mxCell id="BAhukA9TN1ykWZbdlTj1-74" value="&lt;div&gt;Asset&lt;/div&gt;库存" style="whiteSpace=wrap;html=1;align=center;fontSize=14;" vertex="1" parent="1">
          <mxGeometry x="700" y="120" width="100" height="40" as="geometry" />
        </mxCell>
        <mxCell id="BAhukA9TN1ykWZbdlTj1-75" value="id 编号" style="ellipse;whiteSpace=wrap;html=1;align=center;fontStyle=4;fontSize=14;" vertex="1" parent="1">
          <mxGeometry x="640" y="40" width="100" height="40" as="geometry" />
        </mxCell>
        <mxCell id="BAhukA9TN1ykWZbdlTj1-76" value="" style="endArrow=none;html=1;rounded=0;noEdgeStyle=1;fontSize=14;" edge="1" parent="1" source="BAhukA9TN1ykWZbdlTj1-75" target="BAhukA9TN1ykWZbdlTj1-74">
          <mxGeometry relative="1" as="geometry">
            <mxPoint x="-110" y="439.5" as="sourcePoint" />
            <mxPoint x="50" y="439.5" as="targetPoint" />
          </mxGeometry>
        </mxCell>
        <mxCell id="BAhukA9TN1ykWZbdlTj1-77" value="关联" style="shape=rhombus;perimeter=rhombusPerimeter;whiteSpace=wrap;html=1;align=center;fontSize=14;" vertex="1" parent="1">
          <mxGeometry x="540" y="110" width="120" height="60" as="geometry" />
        </mxCell>
        <mxCell id="BAhukA9TN1ykWZbdlTj1-78" value="" style="endArrow=none;html=1;rounded=0;noEdgeStyle=1;fontSize=14;" edge="1" parent="1" source="BAhukA9TN1ykWZbdlTj1-1" target="BAhukA9TN1ykWZbdlTj1-77">
          <mxGeometry relative="1" as="geometry">
            <mxPoint x="-260" y="339.5" as="sourcePoint" />
            <mxPoint x="-100" y="339.5" as="targetPoint" />
          </mxGeometry>
        </mxCell>
        <mxCell id="BAhukA9TN1ykWZbdlTj1-79" value="1" style="resizable=0;html=1;whiteSpace=wrap;align=right;verticalAlign=bottom;fontSize=14;" connectable="0" vertex="1" parent="BAhukA9TN1ykWZbdlTj1-78">
          <mxGeometry x="1" relative="1" as="geometry" />
        </mxCell>
        <mxCell id="BAhukA9TN1ykWZbdlTj1-86" value="qty 库存量" style="ellipse;whiteSpace=wrap;html=1;align=center;fontSize=14;" vertex="1" parent="1">
          <mxGeometry x="760" y="40" width="100" height="40" as="geometry" />
        </mxCell>
        <mxCell id="BAhukA9TN1ykWZbdlTj1-87" value="" style="endArrow=none;html=1;rounded=0;noEdgeStyle=1;fontSize=14;" edge="1" parent="1" source="BAhukA9TN1ykWZbdlTj1-86" target="BAhukA9TN1ykWZbdlTj1-74">
          <mxGeometry relative="1" as="geometry">
            <mxPoint x="-127" y="461" as="sourcePoint" />
            <mxPoint x="-93" y="410" as="targetPoint" />
          </mxGeometry>
        </mxCell>
        <mxCell id="BAhukA9TN1ykWZbdlTj1-88" value="关联" style="shape=rhombus;perimeter=rhombusPerimeter;whiteSpace=wrap;html=1;align=center;fontSize=14;" vertex="1" parent="1">
          <mxGeometry x="840" y="110" width="120" height="60" as="geometry" />
        </mxCell>
        <mxCell id="BAhukA9TN1ykWZbdlTj1-89" value="" style="endArrow=none;html=1;rounded=0;noEdgeStyle=1;fontSize=14;" edge="1" parent="1" source="BAhukA9TN1ykWZbdlTj1-61" target="BAhukA9TN1ykWZbdlTj1-88">
          <mxGeometry relative="1" as="geometry">
            <mxPoint x="190" y="400" as="sourcePoint" />
            <mxPoint x="160" y="290" as="targetPoint" />
          </mxGeometry>
        </mxCell>
        <mxCell id="BAhukA9TN1ykWZbdlTj1-90" value="1" style="resizable=0;html=1;whiteSpace=wrap;align=right;verticalAlign=bottom;fontSize=14;" connectable="0" vertex="1" parent="BAhukA9TN1ykWZbdlTj1-89">
          <mxGeometry x="1" relative="1" as="geometry" />
        </mxCell>
        <mxCell id="BAhukA9TN1ykWZbdlTj1-93" value="含有" style="shape=rhombus;perimeter=rhombusPerimeter;whiteSpace=wrap;html=1;align=center;fontSize=14;" vertex="1" parent="1">
          <mxGeometry x="690" y="200" width="120" height="60" as="geometry" />
        </mxCell>
        <mxCell id="BAhukA9TN1ykWZbdlTj1-94" value="" style="endArrow=none;html=1;rounded=0;noEdgeStyle=1;fontSize=14;" edge="1" parent="1" source="BAhukA9TN1ykWZbdlTj1-74" target="BAhukA9TN1ykWZbdlTj1-93">
          <mxGeometry relative="1" as="geometry">
            <mxPoint x="-49.5" y="460" as="sourcePoint" />
            <mxPoint x="9.5" y="466" as="targetPoint" />
          </mxGeometry>
        </mxCell>
        <mxCell id="BAhukA9TN1ykWZbdlTj1-95" value="1" style="resizable=0;html=1;whiteSpace=wrap;align=right;verticalAlign=bottom;fontSize=14;" connectable="0" vertex="1" parent="BAhukA9TN1ykWZbdlTj1-94">
          <mxGeometry x="1" relative="1" as="geometry" />
        </mxCell>
        <mxCell id="BAhukA9TN1ykWZbdlTj1-96" value="" style="endArrow=none;html=1;rounded=0;noEdgeStyle=1;fontSize=14;" edge="1" parent="1" source="BAhukA9TN1ykWZbdlTj1-2" target="BAhukA9TN1ykWZbdlTj1-93">
          <mxGeometry relative="1" as="geometry">
            <mxPoint x="-20" y="404" as="sourcePoint" />
            <mxPoint x="39" y="410" as="targetPoint" />
          </mxGeometry>
        </mxCell>
        <mxCell id="BAhukA9TN1ykWZbdlTj1-97" value="1" style="resizable=0;html=1;whiteSpace=wrap;align=right;verticalAlign=bottom;fontSize=14;" connectable="0" vertex="1" parent="BAhukA9TN1ykWZbdlTj1-96">
          <mxGeometry x="1" relative="1" as="geometry" />
        </mxCell>
        <mxCell id="BAhukA9TN1ykWZbdlTj1-98" value="Purchase&lt;div&gt;订单&lt;/div&gt;" style="whiteSpace=wrap;html=1;align=center;fontSize=14;" vertex="1" parent="1">
          <mxGeometry x="100" y="120" width="100" height="40" as="geometry" />
        </mxCell>
        <mxCell id="BAhukA9TN1ykWZbdlTj1-99" value="time 时间" style="ellipse;whiteSpace=wrap;html=1;align=center;fontSize=14;" vertex="1" parent="1">
          <mxGeometry x="160" y="40" width="100" height="40" as="geometry" />
        </mxCell>
        <mxCell id="BAhukA9TN1ykWZbdlTj1-100" value="id 编号" style="ellipse;whiteSpace=wrap;html=1;align=center;fontStyle=4;fontSize=14;" vertex="1" parent="1">
          <mxGeometry x="40" y="40" width="100" height="40" as="geometry" />
        </mxCell>
        <mxCell id="BAhukA9TN1ykWZbdlTj1-102" value="PurchaseItem&lt;div&gt;订单项&lt;/div&gt;" style="whiteSpace=wrap;html=1;align=center;fontSize=14;" vertex="1" parent="1">
          <mxGeometry x="100" y="300" width="100" height="40" as="geometry" />
        </mxCell>
        <mxCell id="BAhukA9TN1ykWZbdlTj1-103" value="unit 购买量" style="ellipse;whiteSpace=wrap;html=1;align=center;fontSize=14;" vertex="1" parent="1">
          <mxGeometry x="100" y="380" width="100" height="40" as="geometry" />
        </mxCell>
        <mxCell id="BAhukA9TN1ykWZbdlTj1-104" value="含有" style="shape=rhombus;perimeter=rhombusPerimeter;whiteSpace=wrap;html=1;align=center;fontSize=14;" vertex="1" parent="1">
          <mxGeometry x="90" y="200" width="120" height="60" as="geometry" />
        </mxCell>
        <mxCell id="BAhukA9TN1ykWZbdlTj1-105" value="" style="endArrow=none;html=1;rounded=0;noEdgeStyle=1;fontSize=14;" edge="1" parent="1" source="BAhukA9TN1ykWZbdlTj1-100" target="BAhukA9TN1ykWZbdlTj1-98">
          <mxGeometry relative="1" as="geometry">
            <mxPoint x="-127" y="461" as="sourcePoint" />
            <mxPoint x="-93" y="410" as="targetPoint" />
          </mxGeometry>
        </mxCell>
        <mxCell id="BAhukA9TN1ykWZbdlTj1-106" value="" style="endArrow=none;html=1;rounded=0;noEdgeStyle=1;fontSize=14;" edge="1" parent="1" source="BAhukA9TN1ykWZbdlTj1-99" target="BAhukA9TN1ykWZbdlTj1-98">
          <mxGeometry relative="1" as="geometry">
            <mxPoint x="-117" y="471" as="sourcePoint" />
            <mxPoint x="-83" y="420" as="targetPoint" />
          </mxGeometry>
        </mxCell>
        <mxCell id="BAhukA9TN1ykWZbdlTj1-107" value="" style="endArrow=none;html=1;rounded=0;noEdgeStyle=1;fontSize=14;" edge="1" parent="1" source="BAhukA9TN1ykWZbdlTj1-98" target="BAhukA9TN1ykWZbdlTj1-104">
          <mxGeometry relative="1" as="geometry">
            <mxPoint x="70" y="430" as="sourcePoint" />
            <mxPoint x="230" y="430" as="targetPoint" />
          </mxGeometry>
        </mxCell>
        <mxCell id="BAhukA9TN1ykWZbdlTj1-108" value="1" style="resizable=0;html=1;whiteSpace=wrap;align=right;verticalAlign=bottom;fontSize=14;" connectable="0" vertex="1" parent="BAhukA9TN1ykWZbdlTj1-107">
          <mxGeometry x="1" relative="1" as="geometry" />
        </mxCell>
        <mxCell id="BAhukA9TN1ykWZbdlTj1-109" value="" style="endArrow=none;html=1;rounded=0;noEdgeStyle=1;fontSize=14;" edge="1" parent="1" source="BAhukA9TN1ykWZbdlTj1-102" target="BAhukA9TN1ykWZbdlTj1-104">
          <mxGeometry relative="1" as="geometry">
            <mxPoint x="-20" y="690" as="sourcePoint" />
            <mxPoint x="140" y="690" as="targetPoint" />
          </mxGeometry>
        </mxCell>
        <mxCell id="BAhukA9TN1ykWZbdlTj1-110" value="N" style="resizable=0;html=1;whiteSpace=wrap;align=right;verticalAlign=bottom;fontSize=14;" connectable="0" vertex="1" parent="BAhukA9TN1ykWZbdlTj1-109">
          <mxGeometry x="1" relative="1" as="geometry" />
        </mxCell>
        <mxCell id="BAhukA9TN1ykWZbdlTj1-112" value="含有" style="shape=rhombus;perimeter=rhombusPerimeter;whiteSpace=wrap;html=1;align=center;fontSize=14;" vertex="1" parent="1">
          <mxGeometry x="240" y="290" width="120" height="60" as="geometry" />
        </mxCell>
        <mxCell id="BAhukA9TN1ykWZbdlTj1-113" value="" style="endArrow=none;html=1;rounded=0;noEdgeStyle=1;fontSize=14;" edge="1" parent="1" source="BAhukA9TN1ykWZbdlTj1-102" target="BAhukA9TN1ykWZbdlTj1-112">
          <mxGeometry relative="1" as="geometry">
            <mxPoint x="50" y="530" as="sourcePoint" />
            <mxPoint x="84" y="553" as="targetPoint" />
          </mxGeometry>
        </mxCell>
        <mxCell id="BAhukA9TN1ykWZbdlTj1-114" value="1" style="resizable=0;html=1;whiteSpace=wrap;align=right;verticalAlign=bottom;fontSize=14;" connectable="0" vertex="1" parent="BAhukA9TN1ykWZbdlTj1-113">
          <mxGeometry x="1" relative="1" as="geometry" />
        </mxCell>
        <mxCell id="BAhukA9TN1ykWZbdlTj1-115" value="" style="endArrow=none;html=1;rounded=0;noEdgeStyle=1;fontSize=14;" edge="1" parent="1" source="BAhukA9TN1ykWZbdlTj1-2" target="BAhukA9TN1ykWZbdlTj1-112">
          <mxGeometry relative="1" as="geometry">
            <mxPoint x="231" y="580" as="sourcePoint" />
            <mxPoint x="233" y="539" as="targetPoint" />
          </mxGeometry>
        </mxCell>
        <mxCell id="BAhukA9TN1ykWZbdlTj1-116" value="1" style="resizable=0;html=1;whiteSpace=wrap;align=right;verticalAlign=bottom;fontSize=14;" connectable="0" vertex="1" parent="BAhukA9TN1ykWZbdlTj1-115">
          <mxGeometry x="1" relative="1" as="geometry" />
        </mxCell>
        <mxCell id="BAhukA9TN1ykWZbdlTj1-117" value="" style="endArrow=none;html=1;rounded=0;noEdgeStyle=1;fontSize=14;" edge="1" parent="1" source="BAhukA9TN1ykWZbdlTj1-103" target="BAhukA9TN1ykWZbdlTj1-102">
          <mxGeometry relative="1" as="geometry">
            <mxPoint x="-19" y="580" as="sourcePoint" />
            <mxPoint x="9" y="530" as="targetPoint" />
          </mxGeometry>
        </mxCell>
        <mxCell id="BAhukA9TN1ykWZbdlTj1-118" value="关联" style="shape=rhombus;perimeter=rhombusPerimeter;whiteSpace=wrap;html=1;align=center;fontSize=14;" vertex="1" parent="1">
          <mxGeometry x="240" y="110" width="120" height="60" as="geometry" />
        </mxCell>
        <mxCell id="BAhukA9TN1ykWZbdlTj1-121" value="" style="endArrow=none;html=1;rounded=0;noEdgeStyle=1;fontSize=14;" edge="1" parent="1" source="BAhukA9TN1ykWZbdlTj1-1" target="BAhukA9TN1ykWZbdlTj1-118">
          <mxGeometry relative="1" as="geometry">
            <mxPoint x="208" y="580" as="sourcePoint" />
            <mxPoint x="162" y="539" as="targetPoint" />
          </mxGeometry>
        </mxCell>
        <mxCell id="BAhukA9TN1ykWZbdlTj1-122" value="1" style="resizable=0;html=1;whiteSpace=wrap;align=right;verticalAlign=bottom;fontSize=14;" connectable="0" vertex="1" parent="BAhukA9TN1ykWZbdlTj1-121">
          <mxGeometry x="1" relative="1" as="geometry" />
        </mxCell>
        <mxCell id="BAhukA9TN1ykWZbdlTj1-130" value="" style="endArrow=none;html=1;rounded=0;dashed=1;dashPattern=1 2;" edge="1" parent="1" source="BAhukA9TN1ykWZbdlTj1-74" target="BAhukA9TN1ykWZbdlTj1-88">
          <mxGeometry relative="1" as="geometry">
            <mxPoint x="800" y="190" as="sourcePoint" />
            <mxPoint x="960" y="190" as="targetPoint" />
          </mxGeometry>
        </mxCell>
        <mxCell id="BAhukA9TN1ykWZbdlTj1-131" value="N" style="resizable=0;html=1;whiteSpace=wrap;align=right;verticalAlign=bottom;" connectable="0" vertex="1" parent="BAhukA9TN1ykWZbdlTj1-130">
          <mxGeometry x="1" relative="1" as="geometry" />
        </mxCell>
        <mxCell id="BAhukA9TN1ykWZbdlTj1-132" value="" style="endArrow=none;html=1;rounded=0;dashed=1;dashPattern=1 2;" edge="1" parent="1" source="BAhukA9TN1ykWZbdlTj1-74" target="BAhukA9TN1ykWZbdlTj1-77">
          <mxGeometry relative="1" as="geometry">
            <mxPoint x="590" y="200" as="sourcePoint" />
            <mxPoint x="750" y="200" as="targetPoint" />
          </mxGeometry>
        </mxCell>
        <mxCell id="BAhukA9TN1ykWZbdlTj1-133" value="N" style="resizable=0;html=1;whiteSpace=wrap;align=right;verticalAlign=bottom;" connectable="0" vertex="1" parent="BAhukA9TN1ykWZbdlTj1-132">
          <mxGeometry x="1" relative="1" as="geometry" />
        </mxCell>
        <mxCell id="BAhukA9TN1ykWZbdlTj1-136" value="" style="endArrow=none;html=1;rounded=0;dashed=1;dashPattern=1 2;" edge="1" parent="1" source="BAhukA9TN1ykWZbdlTj1-102" target="BAhukA9TN1ykWZbdlTj1-118">
          <mxGeometry relative="1" as="geometry">
            <mxPoint x="250" y="250" as="sourcePoint" />
            <mxPoint x="410" y="250" as="targetPoint" />
          </mxGeometry>
        </mxCell>
        <mxCell id="BAhukA9TN1ykWZbdlTj1-137" value="1" style="resizable=0;html=1;whiteSpace=wrap;align=right;verticalAlign=bottom;" connectable="0" vertex="1" parent="BAhukA9TN1ykWZbdlTj1-136">
          <mxGeometry x="1" relative="1" as="geometry" />
        </mxCell>
        <mxCell id="BAhukA9TN1ykWZbdlTj1-138" value="" style="endArrow=none;html=1;rounded=0;dashed=1;dashPattern=1 2;" edge="1" parent="1" source="BAhukA9TN1ykWZbdlTj1-61" target="BAhukA9TN1ykWZbdlTj1-65">
          <mxGeometry relative="1" as="geometry">
            <mxPoint x="1040" y="180" as="sourcePoint" />
            <mxPoint x="1200" y="180" as="targetPoint" />
          </mxGeometry>
        </mxCell>
        <mxCell id="BAhukA9TN1ykWZbdlTj1-139" value="N" style="resizable=0;html=1;whiteSpace=wrap;align=right;verticalAlign=bottom;" connectable="0" vertex="1" parent="BAhukA9TN1ykWZbdlTj1-138">
          <mxGeometry x="1" relative="1" as="geometry" />
        </mxCell>
      </root>
    </mxGraphModel>
  </diagram>
</mxfile>
